<?xml version="1.0" standalone="no"?>
<!DOCTYPE svg PUBLIC "-//W3C//DTD SVG 20010904//EN"
 "http://www.w3.org/TR/2001/REC-SVG-20010904/DTD/svg10.dtd">
<svg version="1.0" xmlns="http://www.w3.org/2000/svg"
 width="1080.000000pt" height="1080.000000pt" viewBox="0 0 1080.000000 1080.000000"
 preserveAspectRatio="xMidYMid meet">
<metadata>
Created by potrace 1.16, written by Peter Selinger 2001-2019
</metadata>
<g transform="translate(0.000000,1080.000000) scale(0.100000,-0.100000)"
fill="#000000" stroke="none">
<path d="M1948 9061 c-158 -51 -280 -173 -328 -329 -20 -63 -20 -100 -20
-3332 0 -3227 0 -3269 20 -3331 38 -125 130 -234 248 -297 125 -67 -153 -62
3532 -62 3688 0 3406 -5 3534 62 81 43 174 139 217 225 l34 68 0 3335 0 3335
-32 65 c-62 125 -172 220 -300 260 -65 20 -87 20 -3457 19 -3253 0 -3393 -1
-3448 -18z"/>
</g>
</svg>
